<?xml version="1.0" encoding="UTF-8"?>
<svg id="Calque_1" data-name="Calque 1" xmlns="http://www.w3.org/2000/svg" viewBox="0 0 225 225">
  <defs>
    <style>
      .cls-1 {
        fill: #010101;
      }

      .cls-2 {
        fill: #f6f6f6;
      }

      .cls-3 {
        fill: #121212;
      }

      .cls-4 {
        fill: #020202;
      }

      .cls-5 {
        fill: #090909;
      }

      .cls-6 {
        fill: #e10001;
      }

      .cls-7 {
        fill: #060606;
      }

      .cls-8 {
        fill: #e2e2e2;
      }

      .cls-9 {
        fill: #fbfbfb;
      }

      .cls-10 {
        fill: #e3000f;
      }

      .cls-11 {
        fill: #f9f9f9;
      }

      .cls-12 {
        fill: #e20007;
      }

      .cls-13 {
        fill: #030303;
      }

      .cls-14 {
        fill: #0b0b0b;
      }

      .cls-15 {
        fill: #f5f5f5;
      }

      .cls-16 {
        fill: #fefefe;
      }

      .cls-17 {
        fill: #040404;
      }

      .cls-18 {
        fill: #070707;
      }

      .cls-19 {
        fill: #f8f8f8;
      }

      .cls-20 {
        fill: #e10000;
      }

      .cls-21 {
        fill: #101010;
      }

      .cls-22 {
        fill: #e8e8e8;
      }
    </style>
  </defs>
  <rect class="cls-16" width="225" height="225"/>
  <g>
    <circle class="cls-1" cx="112.42" cy="112.42" r="104.55"/>
    <circle class="cls-16" cx="112.44" cy="112.44" r="102.31"/>
    <g>
      <path class="cls-17" d="M176,54.01c-2.75-2.68-18.19,9.53-10.5,12.98,3.57-1.89,2.07-4.43,4.02-6.98,9.34,4.51,1.55,7.84-3.01,11.95-10.56-7.19-8.61-15.42,2.14-20.82,11.52-5.79,13.7,10.91,8.86,10.84-3.65-2.27-1.49-4.56-1.5-7.98Z"/>
      <path class="cls-13" d="M150.08,53.92c4.28,5.91,11.89-12.14,13.03-12.8,2.76-1.6,4.53,1.18,2.96,4.45-2.93,6.11-8.75,15.26-16.44,11.29-10.1-5.21,3.73-15.58,5.39-21.86,10.8,1.9-8.22,14.39-4.94,18.91Z"/>
      <path class="cls-17" d="M97,25.01c-3.37,9.33-1.91,12.89,4.98,19.49-5.24,5.19-5.64-3.25-9.98-3.49.38,4,.19,8.4-5,7.99,3.46-9.76,2.05-13.88-5-20.98,6.48-2.53,5.72,2.02,9.99,4.99l1.16-7.85,3.85-.14Z"/>
      <path class="cls-17" d="M42,67.01l-1,5-4.48-1.02c-4.66.46,11.56,13.96,14.49,7.5-2.34-3.58-4.22-2.25-1.98-7.48,10.5,5.71,4.13,17.04-8.01,11.49-10.9-4.98-12.56-15.32,1-15.49Z"/>
      <path class="cls-17" d="M189.01,76l-2.04-5.99-4.91,2.6,1.93,6.39c-6.55.1-2.53-9.69-10.87-1.52l2.85,5.96-2.96,1.56-5.01-10.98,18.98-10.02,4.9,9.68-2.87,2.32Z"/>
      <path class="cls-18" d="M128.99,183.99c-4.28.4-4.47-5.87-9.55-2.05-1,6.04-.7,21.67,8.6,15.39l-.09-6.29c-.42-.42-4.71.52-4.95-2.03l7-1.02c-.1,6.41,4.47,11.77-4.59,12.98-7.86,1.05-9.59-9.53-9.5-15.5.16-11.49,16.97-5.51,13.09-1.48Z"/>
      <path class="cls-7" d="M162.5,158.02c.89.03,10.96,12.19,11.3,13.7.92,4.07-1.3,8.46-5.52,9.12-5.24.82-11.66-10.34-15.27-13.36l1.5-2.47,13.05,13.03c11.99-2.93-3.8-12.62-6.07-17.03-.8-1.55.37-3.02,1.02-2.99Z"/>
      <path class="cls-14" d="M69.99,166.99c-1.04,1.01-5.41-3.33-6.52-4-2.79-1.68-3.42,3.16-5.46,4.5,2.15,2.09,5.68,2.61,4.98,6.49l-6.49-4.97c-1.44,1.7-6.19,4.49-3.87,7.07.95,1.05,4.97,1.93,4.36,4.91-1.36,1.31-7.96-4.94-8.75-6.48l12.86-15.44c1.77-1.26,10.19,6.65,8.89,7.92Z"/>
      <path class="cls-18" d="M168.01,154.98l5.51,2.85,4.99-5.81c3.28,2.15-2.82,5.08-2.42,7.36l5.43,4.52,4.51-6.89,1.83,2.32-5.41,7.75-17.36-11.18,6.42-9.87c3.56,2.4-4.85,7.06-3.49,8.96Z"/>
      <path class="cls-5" d="M101,179.01c.71,4.13-4.43.8-6.51.95-2.72.19-2.88,3.87-3.07,6.09,1.64,2.09,8.16.2,7.58,3.95l-8.05-.59-1.96,6.01c.19,1.87,8.96.81,8,4.58l-11-2,5.05-20.97,9.95,1.98Z"/>
      <path class="cls-7" d="M85,50.98l-3.96,1.02c-1.38-5.25-4.99-9.68-6.8-14.72-1.22-3.4-2.64-5,1.28-6.22l9.49,19.93Z"/>
      <path class="cls-3" d="M104,180h3s-1,19-1,19c.78.79,8.9-1.62,8.01,1.49l-11,.5c-.5-.36,1-1.28,1-1.49v-19.5Z"/>
      <path class="cls-21" d="M134.99,176l6.01,20.99c-2.13.41-2.33-.99-3.06-2.43-.76-1.51-5.93-16.19-5.82-17.08s1.84-1.81,2.87-1.48Z"/>
      <g>
        <path class="cls-4" d="M125.99,46h-3.99c-.1-3.75,1.08-7.66-2.52-10-3.92-.83-1.99,8.52-2.49,9h-3.99s1.97-21.57,1.97-21.57c6.26.64,14.72-.29,11.83,8.86-.44,1.4-2.58,2.47-2.57,3.17,0,.49,1.57,1.7,1.73,3.05.29,2.47-.06,5,.03,7.47Z"/>
        <polygon class="cls-8" points="118 33 118 27 122.05 27.45 122.92 28.6 122.57 32.07 118 33"/>
      </g>
      <g>
        <path class="cls-7" d="M80.99,183c-.13,3.36,2.64.69,2.07,5.49-1.02,8.68-10.37,5.01-14.96,1.03l9.49-18.44c7.99,1.35,15.02,10.51,3.39,11.93Z"/>
        <path class="cls-2" d="M72.03,189.96l3.46-7.92c9.02,4.3,5.86,11.44-3.46,7.92Z"/>
        <path class="cls-15" d="M83.83,176.15c4.42,7.17-12.36,8.89-5.81-2.15l5.81,2.15Z"/>
      </g>
      <g>
        <path class="cls-13" d="M54.99,57.99c3.87-1.7,13.01,4.89,9,8-1.38,1.07-7.84-7.64-10.97-2.49l6.98,5.52-3.5,3.96-15.5-13.51c-.11-.45,4.71-6.69,5.29-7.16,4.14-3.41,11.3.51,8.71,5.69Z"/>
        <rect class="cls-22" x="47.6" y="55.01" width="4.33" height="6.44" transform="translate(-26.6 52.25) rotate(-45)"/>
      </g>
      <g>
        <path class="cls-18" d="M146.74,170.17c1.27-.19,1.88.09,2.98.56,3.21,1.37,10.31,15.44,8.32,17.73-1.5,1.73-6.75,3.88-9.07,3.15-4.7-1.47-15-19.53-2.23-21.43Z"/>
        <path class="cls-9" d="M143.13,174.13c.28-.44,3.51-1.23,4.34-1.15,3.38.34,13.47,17.59,3.08,16.05-3.44-.51-9.04-12.35-7.42-14.89Z"/>
      </g>
      <g>
        <path class="cls-4" d="M74.71,56.72c-8.2,10.03-21.29-9.05-16.78-15.3,7.57-10.49,22.29,8.56,16.78,15.3Z"/>
        <path class="cls-11" d="M62.53,42.01c3.59-1.04,12.83,12.57,7.94,13.99-3.59,1.04-12.83-12.57-7.94-13.99Z"/>
      </g>
      <g>
        <path class="cls-7" d="M52.51,146.09c9.66,8.18,4.78,15.72-5.31,19.68-5.53,2.17-10.06-2.52-10.77-7.75l16.08-11.93Z"/>
        <path class="cls-9" d="M51.68,150.13c1.9-.3,4.72,3.83,3.87,5.84-1.75,4.09-15.44,13.34-16.12,3l12.25-8.85Z"/>
      </g>
      <g>
        <path class="cls-13" d="M145.73,30.25c3.55,3.78-2.23,19.79-8.21,19.83-13.36.08-5.9-20.37-.81-21.89,2.28-.68,7.44.38,9.02,2.06Z"/>
        <path class="cls-19" d="M134.1,45.89c-1.36-2.18,2.34-14.3,6.28-14.83,5.98,1.06-2.91,20.24-6.28,14.83Z"/>
      </g>
      <g>
        <path class="cls-10" d="M64,97c.39,10.46.69,20.13.89,29.01l.56,1.52c10.26-.36,20.44-.2,30.55.48v1h-33.01s1.01-33,1.01-33c.87.28.86.62,0,1Z"/>
        <path class="cls-10" d="M96,64l33.01-1.01v33.01h-1.01c-.13-10.42-.46-20.75-1-31-10.02-.44-20.02-.77-30-1-.28.87-.62.86-1,0Z"/>
        <path class="cls-10" d="M127,65c.51,10.26.84,20.59,1,31,10.93.19,21.71.62,32.32,1.29l-.32,1.21c.83,8.91.81,19.38,0,28.5-9.74.83-21.06.82-31,0,.87.28.86.62,0,1,10.51-.17,20.96-.61,31.33-1.33l.67,1.33c-2.26-.36-2.74-1.05-.5-1.45v-27.65c-1.08-1.96-.91-2.93.5-2.9l1,33h-33v33l-33-1c-.24-1.97.73-2.14,2.9-.5h27.65c.69-1.25,1.16-1.02,1.45.5-2.26-.36-2.74-1.05-.5-1.45-.25-10.32-.08-20.51.5-30.55-.28.87-.62.86-1,0,.83,9.74.82,21.06,0,31-8.91.83-19.38.81-28.5,0l-1.53.23c-.3-10.73-.62-21.48-.97-32.23-10.37-.68-20.82-.85-31.36-.49-.42-10.31-.3-20.48.36-30.51,10.51-.32,21.18-.65,32-1-.83-9.74-.82-21.06,0-31,9.84-.91,19.84-.91,30,0Z"/>
        <path class="cls-12" d="M128,96c-.98-.98-.9-1-1.05-2.4-.48-4.3,1.07-27.59.05-28.6.98.98.9,1,1.05,2.4.99,8.87-.84,19.53-.05,28.6Z"/>
        <path class="cls-12" d="M161,96v32h-32v-1h31v-28.5c-.63-.99-1.38-1.29-2.5-1.5-5.53-1.01-26.87,1.63-29.5-1h33Z"/>
        <path class="cls-12" d="M127,65h-30c-.66-.29-.64-.63,0-1,8.76.76,19.05-1.01,27.6-.05,1.4.16,1.42.08,2.4,1.05Z"/>
        <path class="cls-12" d="M96,128c2.63,2.63-.01,23.96,1,29.5.21,1.12.51,1.87,1.5,2.5h28.5v-31h1v32h-32v-33Z"/>
        <path class="cls-12" d="M65,97v30.01c9.07.78,19.74-1.05,28.6-.06,1.4.16,1.42.08,2.4,1.05h-32.01s0-31,0-31c.29-.66.63-.64,1,0Z"/>
        <path class="cls-6" d="M96,96c.28-.87.62-.86,1,0l-1.45,1.03-30.55-.03h-1v-1h32Z"/>
        <rect class="cls-20" x="96" y="64" width="1" height="32"/>
      </g>
    </g>
  </g>
</svg>