<?xml version="1.0" encoding="UTF-8"?>
<svg id="Calque_1" data-name="Calque 1" xmlns="http://www.w3.org/2000/svg" viewBox="0 0 553.96 305.78">
  <defs>
    <style>
      .cls-1 {
        fill: #e5540e;
      }

      .cls-2 {
        fill: #562582;
      }

      .cls-3 {
        fill: #eb7f4b;
      }

      .cls-4 {
        fill: #fefefe;
      }
    </style>
  </defs>
  <path class="cls-1" d="M0,264.27v-1.68c1.29-4.41,4.6-4.94,8.73-4.53,7.16.72,8.44,6.21,12.29,11.22,4.07,5.3,9.44,10.69,14.75,14.75.65.49,5.1,3.88,5.49,3.5,1.03-5.98,1.7-12.05,2.16-18.11,3.55-46.51,1.87-93.81,2.39-140.53,2.01-9.82,13.88-4.83,17.96,1.01,4.44,6.37,3.61,20.2,3.87,28.02,1.17,34.97,1.03,72.09-1.91,106.94-.66,7.83-2.17,26.51-6.04,32.81-3,4.88-11.72,9.04-17.42,7.91-8.39-1.67-24.45-17.93-30.4-24.53-4.57-5.07-9.2-10.44-11.87-16.79Z"/>
  <path class="cls-1" d="M421.26.01c.7.21,1.46.21,2.16,0,.23.02.49-.03.72,0,1.37.18,6.71,1.8,6.72,3.49,0,.76-2.78,1.76-3.48,2.03-6.63,2.6-13.82,3.86-20.27,6.89l.96,32.91c4.8-1.4,8.85-5.01,14.03-5.27,1.72-.09,8.94.72,9.44,2.57-.76,3.93-5.8,3.85-8.97,4.85-4.39,1.39-8.48,3.73-12.79,5.32-.22,2.8.72,5.81,1.71,8.42.28.74,1.61,4.09,2.25,4.21,2.79-.8,5.38-2.16,8.12-3.08,3.91-1.31,7.11-1.74,11.21-.64,2.55.68,2.69,1.45.65,3.15-2.79,2.32-14.31,6.92-18.14,8.24-7.36,2.53-10.57-8.91-11.9-14.14-2.74-10.81-3.38-22.29-3.76-33.41-.12-3.59.25-9.51-.25-12.7-.22-1.38-2.67-4.39-1.54-5.64.45-.5,6.07-1.95,7.25-2.34,5.04-1.68,10-3.57,15.17-4.86h.72Z"/>
  <path class="cls-3" d="M423.42.01c-.45.4-1.71.4-2.16,0h2.16Z"/>
  <path class="cls-1" d="M105.59,160.72l-5.31,65.67c7.65-2.03,14.73-5.96,22.7-6.92,6.94-.83,19.83,1.48,25.28,6.08,4.66,3.94,1.29,7.9-2.81,10.39s-5.9,1.95-10.27,2.45c-11.42,1.29-22.68,5.78-33.65,8.92-.83.81.47,8.97.74,10.54.74,4.27,1.86,9.02,3.68,12.89,6.93-1.35,13.68-3.99,20.67-5.18s16.59.03,22.68,3.07c6.2,3.1,4.12,7.27-.81,10.17-9.75,5.73-25.81,8.47-36.9,11.8-6.08,1.83-9.62,3.64-15.62-.55-10.69-7.47-13.35-32.91-14.17-45.06-1.94-28.86.81-58.36,3.8-87.05-1.12-4.06-5.63-12.9.71-14.67,5.5-1.53,12.76-2.3,18.57-3.5,11.93-2.46,27.73-7.62,39.54-4.36,3.82,1.06,9.94,3.62,12.47,6.72,5.07,6.21-2.97,8.14-7.62,9.4-14.25,3.86-29.47,5.02-43.67,9.22Z"/>
  <path class="cls-2" d="M534.23,203.39c-4.9-2.45-10.07-4.36-15.21-6.26-15.99-5.91-32.41-10.68-48.4-16.6-8.69-3.22-13.78-4.38-19.71-11.96-5.51-7.04-12.66-19.44-2.62-25.83,8.16-5.19,21.66-10.28,30.9-13.72,7.38-2.75,19.88-7.6,27.56-6.92,5.25.46,15.18,4.2,19.11,7.76,7.57,6.86-2.73,9.51-7.98,11.22-13.27,4.33-34.85,8.07-46.13,15.28-2.9,1.85-3.53,2.85-.27,4.84,3.86,2.37,10.21,4.15,14.61,5.54,17.85,5.63,48.57,11.91,61.96,24.87,6.92,6.69,7.83,23.41,2.38,31.16-3.87,5.49-19.59,12.57-26.09,15.41-17.46,7.63-38.16,14.43-56.97,17.63-4.22.72-8.9,2.15-12.03-1.73-3.63-4.49-.76-10.55,2.2-14.58,5.53-7.53,10.49-7.04,18.72-9.35,16.43-4.59,39.6-11.95,53.28-22.04.71-.52,5.22-3.99,4.71-4.73Z"/>
  <path class="cls-1" d="M452.12,103.45c6.16,6.39-1.76,8.52-6.82,9.92-14.4,3.97-29.55,5.16-43.94,9.19-2.41,21.8-3.55,43.72-5.29,65.57-.04.52-.06.33.25.25,7.89-2.05,15.18-6.57,23.61-7.09,6.81-.42,19.49,1.81,24.6,6.6,3.54,3.31,1.33,6.48-1.81,8.99-4.83,3.87-9.39,3.06-15.04,3.91-10.23,1.54-20.27,5.72-30.25,8.32-.95.38.17,8.09.38,9.41.54,3.4,1.46,7.4,2.51,10.68.21.67.9,3.21,1.43,3.38,6.32-1.11,12.43-3.4,18.74-4.69,7.65-1.57,15.91-.9,23.2,2.08,3.86,1.58,7.53,4.61,3.59,8.64-5.89,6.01-30.69,11.18-39.65,13.84-3.65,1.08-5.3,2.36-9.54,2-15.22-1.31-18.91-29.73-20.02-41.38-2.94-30.76.27-62.6,3.27-93.25-1.02-4.15-5.68-12.88.79-14.67,2.83-.78,6.61-1.07,9.61-1.66,9.64-1.91,19.32-4.39,28.98-6.05s23.6-2.08,31.39,6Z"/>
  <path class="cls-1" d="M283.56,165.95c.21,2.35.14,4.72.24,7.07.53,11.97.97,23.96,1.19,35.98.15,8.39,1,18.84.25,27.08-.63,6.88-5.92,6.61-10.63,3.44-5.36-3.61-9.84-10.34-10.24-16.86-.93-15.42.7-31.74-.01-47.25.55-11.56.16-23.2.02-34.77-.03-2.63-.84-5.06.46-7.67,1.97-3.95,9.59-5.28,13.29-3.44,2.74,1.36,9.7,9.29,12.27,11.96,13.29,13.82,26.17,28.04,39.34,41.97,4.72,4.99,9.53,9.9,14.27,14.86-.04-1.4.06-2.81.01-4.21-.81-23.59-2.85-48.6-1.7-72.18.34-6.93,1.37-14.83,10.41-11.11,15.1,6.21,12.11,20.68,11.66,33.89-.77,22.53-2.05,45.07-1.2,67.64.1,2.74.98,6.61.05,9.15-1.95,5.33-12.11,8.58-17.14,6.74-1.91-.7-5.18-3.75-6.78-5.22-14.15-13.01-27.2-28.29-40.65-42.1-4.95-5.08-10.05-10.02-15.12-14.98Z"/>
  <path class="cls-1" d="M243.45,131.25c5.95-.52,9.06,1.23,9.85,7.27,2.31,17.55-3.14,37.79-9.39,54.11-6.51,16.99-21.47,46.5-39.46,53.12-9.85,3.62-29.39,2.22-36-7.05-11.74-16.47-11.31-52.73-6.83-71.74,1.03-4.36,3.81-14.18,6.35-17.63,3.02-4.11,11.72.56,14.81,2.87,1.98,1.48,4.48,3.39,4.05,6.15-.34,2.15-1.88,5.67-2.51,8.04-4.44,16.62-6.18,37.04-3.36,54.06.41,2.5,2.48,12.2,4.79,13.2,1.77.76,5.49-.73,7.14-1.61,14.52-7.8,26.71-37.21,31.49-52.46,3.62-11.56,6.27-23.67,7.13-35.8.27-3.8-.93-6.26,2.4-9.11,2.28-1.95,6.58-3.14,9.55-3.4Z"/>
  <path class="cls-1" d="M204.57,99.23c-2.03,1.12-5.13.43-6.66-1.26-1.61-1.78-1.83-6.24-2.13-8.66-.6-4.91-1.01-9.91-1.47-14.84-1.35-14.64-2.2-29.34-3.36-44-2.5.94-5,2.08-7.55,2.89-3.89,1.23-8.34,2.17-11.65-1.09-2.98-2.94,4.29-3.06,6.05-3.55,3.52-.98,7.38-3.14,10.92-4.43,5.96-2.17,12.21-3.76,18.48-4.79,1.92-.31,6.36-1.19,8.06-1.01s4.01,2.37,2.3,3.7c-.41.32-1.64.69-2.21.91-2.51.96-15.17,4.35-16.03,5.79-.4.67-.28,5.12-.23,6.26.75,19.99,4.17,40.43,5.53,60.42.05.68.27,3.34-.06,3.66Z"/>
  <path class="cls-1" d="M253.4,22.62c-.5.61-.35,3.87-.32,4.86.65,21.14,4.47,42.85,5.78,64.01.16,1.28-.29,1.9-1.57,2.05-2.92.35-5.77-1.05-6.54-4.03-.69-2.69-.95-6.68-1.26-9.53-.56-5.09-.99-10.25-1.44-15.35-1.19-13.37-1.88-26.84-3.12-40.17-3.8.91-8.98,4.04-12.83,4.1-2.2.03-6.29-1.46-7.07-3.74.04-1.52,5.34-1.86,6.66-2.2,2.95-.78,5.98-2.51,8.86-3.61,7.79-2.97,18.5-6.01,26.82-6.53,1.63-.1,3.43-.21,4.43,1.31,1.42,2.16-1.12,2.71-2.69,3.3-4.11,1.54-8.65,2.44-12.72,4.07-.6.24-2.68,1.08-2.98,1.45Z"/>
  <path class="cls-1" d="M309.17,21.89c1.67-.22,2.9-.36,3.53,1.38,4.4,12.04-3.55,40.97-13.07,49.76-4.53,4.18-15.14,5.76-19.43.71-5.34-6.29-7.18-21.24-6.72-29.25.13-2.22,1.04-8.56,2.1-10.37,1.17-2,6.31.51,7.43,2-1.93,9.62-2.15,20.79.71,30.25.57,1.87,1.97,6.28,4.26,6.32,5.39.09,10.44-10.83,12.06-15.07,3.97-10.37,5.55-22.14,4.91-33.22.3-1.31,2.99-2.34,4.21-2.51Z"/>
  <path class="cls-1" d="M219.68,42.03c5.34-.88,6.38,2.19,7.39,6.65,1.47,6.52,2.43,16.2,2.52,22.9.02,1.33-.11,8.07-1.37,8.49-1.95.36-3.76-2.45-4.59-3.97-2.9-5.26-5.48-23.32-5.8-29.69-.1-1.93-.45-4,1.85-4.38Z"/>
  <path class="cls-1" d="M108.2,87.78c.43.39,8.6-6.04,9.52-6.67,1.26-.87,3.98-3.08,5.41-2.88,2.12.3,3.15,1.6,1.97,3.53-2.11,3.46-11.15,12.68-14.66,14.6-2.3,1.25-3.18,1.08-5.59.16-.58-.22-3.25-1.53-3.53-1.86-.39-.46-.79-2.52-.95-3.24-2.69-11.53-4.83-28.84-5.12-40.68-.07-2.62-.68-6.46,3.19-5.83s4,5.01,4.46,8.01c1.15,7.48,1.52,15.19,2.71,22.71.65,4.1,1.51,8.15,2.6,12.15Z"/>
  <path class="cls-1" d="M140.86,80.15l-6.09,23.53c-.58,1.04-4.34,2.75-5.17,1.79-.22-.25-.31-1.34-.31-1.73.15-6.83,2.61-16.14,4.2-22.92,2.91-12.36,6.58-27.69,11.22-39.38,1.24-3.12,2.77-4.35,6.13-5.15,4.72-1.12,5.64.22,8.16,3.69,6.63,9.13,13.33,23.83,17.67,34.38.86,2.08,4.26,10.11,3.93,11.81-.53,2.64-6.07,2.15-7.76.43-1.92-1.95-5.66-14.55-6.46-14.61-8.13,3.7-16.83,6.11-25.51,8.17Z"/>
  <path class="cls-4" d="M163.61,64.99c-7.61,1.44-14.67,4.85-21.35,8.63,1.36-6.6,3-13.17,4.97-19.61.84-2.75,1.65-5.62,2.76-8.27.2-.48,1.13-2.82,1.5-2.81l12.11,22.06Z"/>
  <path class="cls-1" d="M326.46,23.07c-1.06-.44-6.08-2.66-5.7-3.96.52-.6,1.56-.83,2.34-1.04,8.73-2.36,21.72-3.05,30.87-3.43,10.13-.42,22.49-1.55,30.7,5.53,7.4,6.38,1.99,12.34-2.87,17.98-9.85,11.43-27.03,25.23-40.82,31.38-4.9,2.18-7.13,3-8-3.45-.1-.74.15-1.64-.05-2.34-.1-.36-.86-1.03-1.11-1.53-2.24-4.51-3.39-11.98-4.09-17.02-1-7.26-1.53-14.81-1.27-22.11Z"/>
  <path class="cls-4" d="M379.67,22.4c2.57,2.79-.97,7.05-2.91,9.27-7.63,8.75-20.82,18.07-30.76,24.17-.86.53-6.33,3.95-6.77,3.63-2.59-6.33-3.85-13.27-4.78-20.04-.48-3.49-1.11-7.76-1.24-11.23-.17-4.27-.06-6.09,4.48-6.81,10.3-1.64,25.38-2.16,35.71-.99,1.8.2,5.03.64,6.28,2Z"/>
</svg>