<?xml version="1.0" encoding="UTF-8"?>
<svg id="Calque_1" data-name="Calque 1" xmlns="http://www.w3.org/2000/svg" xmlns:xlink="http://www.w3.org/1999/xlink" viewBox="0 0 1215.22 578.03">
  <defs>
    <style>
      .cls-1 {
        fill: url(#Dégradé_sans_nom_2);
      }

      .cls-2 {
        fill: #575656;
      }

      .cls-3 {
        fill: url(#Dégradé_sans_nom_3);
      }

      .cls-4 {
        fill: #fefefe;
      }
    </style>
    <linearGradient id="Dégradé_sans_nom_2" data-name="Dégradé sans nom 2" x1="890.14" y1="705.49" x2="293.76" y2="1108.89" gradientTransform="translate(-284 -725)" gradientUnits="userSpaceOnUse">
      <stop offset="0" stop-color="#d8071f"/>
      <stop offset="1" stop-color="#a11007"/>
    </linearGradient>
    <linearGradient id="Dégradé_sans_nom_3" data-name="Dégradé sans nom 3" x1="592.27" y1="815.9" x2="398.03" y2="944.57" gradientTransform="translate(-284 -725)" gradientUnits="userSpaceOnUse">
      <stop offset="0" stop-color="#d8071f"/>
      <stop offset="1" stop-color="#a21008"/>
    </linearGradient>
  </defs>
  <g>
    <path class="cls-2" d="M750.72,556l.05-9.96c22.61-.66,23-32.77-.05-32.04.31-3.01-.43-6.65,0-9.54.23-1.57-.6-1.51,1.51-1.5,34.8.11,34.19,55.01-1.51,53.04Z"/>
    <path class="cls-2" d="M750.73,524.99l-.05,9.96c-22.59.63-22.63,32.69.05,32.04-.31,3.01.43,6.65,0,9.54-.23,1.58.6,1.51-1.51,1.5-34.31-.1-34.23-55.04,1.51-53.04Z"/>
  </g>
  <path class="cls-1" d="M627.22,0c.29,1.45-.32,2.46-.78,3.71-4.79,13.09-16.03,32.27-23.04,44.96-72.92,131.92-203.61,269.85-335.48,343.52-62.38,34.85-184.82,85.55-242.21,18.82-51.27-59.61-14.91-170.55,14.53-233.49l55.98-16.51c-15.82,37.52-32.88,84.55-22.12,125.62,22.36,85.41,136.92,35.8,186.04,5.79,94.22-57.58,173.22-150.26,222.55-248.45L627.22,0Z"/>
  <path class="cls-3" d="M318.22,94c2.27,2.04-21.72,38.85-24.61,42.88-28.45,39.76-83.34,91.95-132.19,102.81-63.54,14.13-59.23-47.91-38.98-87.48l195.77-58.22Z"/>
  <path class="cls-4" d="M452.22,373c.76-1.2,14.09-1.26,16.5-1,19.4,2.1,23.23,31.43,13.93,44.94-6.24,9.07-21.25,11.04-30.43,6.57v-50.5Z"/>
  <g>
    <path class="cls-2" d="M441.47,538.2c0-10.08,6.3-18.2,15.96-18.2,4.06,0,8.05,1.61,10.57,4.62v-14.98h9.38v46.06h-8.89v-4.2c-2.52,3.36-7,4.9-11.2,4.9-9.66,0-15.82-8.12-15.82-18.2ZM468.01,538.2c0-5.46-3.5-9.52-8.33-9.52s-8.68,4.06-8.68,9.52,3.64,9.52,8.68,9.52,8.33-3.92,8.33-9.52Z"/>
    <path class="cls-2" d="M481.3,538.2c0-10.08,7.84-18.2,18.13-18.2,9.52,0,17.01,8.12,17.01,18.06,0,1.68-.21,3.36-.21,3.36h-25.41c1.12,4.83,5.11,7.14,9.73,7.14,3.36,0,6.86-.98,9.45-2.73l3.5,6.72c-3.92,2.59-8.47,3.85-13.02,3.85-10.22,0-19.18-6.65-19.18-18.2ZM507.63,535.19c-.7-4.41-4.2-7.35-8.47-7.35s-7.56,2.94-8.47,7.35h16.94Z"/>
    <path class="cls-2" d="M518.61,551.64l3.36-7.21c2.38,1.82,5.67,3.71,10.92,3.71,2.17,0,5.74-.84,5.74-2.94s-3.01-2.59-6.02-3.43c-6.93-1.82-12.6-4.13-12.6-10.85,0-7.14,7-10.92,13.58-10.92,5.74,0,9.38,1.4,13.02,3.5l-3.15,7c-3.43-1.68-6.65-2.45-9.73-2.45-2.17,0-4.2.98-4.2,2.45,0,1.96,2.94,2.59,6.16,3.29,5.95,1.4,12.46,3.99,12.46,11.13,0,8.61-8.75,11.48-15.26,11.48-7.49,0-12.32-2.94-14.28-4.76Z"/>
    <path class="cls-2" d="M550.67,510.9c0-3.08,2.52-5.6,5.53-5.6s5.6,2.52,5.6,5.6-2.52,5.53-5.6,5.53-5.53-2.52-5.53-5.53ZM551.58,520.7h9.38v35h-9.38v-35Z"/>
    <path class="cls-2" d="M567.4,561.66l3.5-5.88c2.8,2.17,6.86,3.15,10.15,3.15,6.51,0,9.8-3.92,10.08-9.52.07-.21.07-.49.07-.77-1.54,2.73-5.32,5.18-10.5,5.18-9.73,0-15.82-7.56-15.82-16.87s6.09-16.94,15.82-16.94c4.48,0,9.1,1.96,10.99,5.46v-4.76h8.89v26.53c0,11.48-6.93,18.76-18.55,18.76-6.3,0-11.41-1.68-14.63-4.34ZM591.28,536.73c0-4.9-3.64-8.61-8.47-8.61s-8.4,3.71-8.4,8.82,3.64,8.68,8.4,8.68,8.47-3.64,8.47-8.89Z"/>
    <path class="cls-2" d="M605.48,520.7h9.17v4.69c2.8-3.85,6.79-5.39,11.06-5.39,9.24,0,12.46,5.95,12.46,15.54v20.16h-9.38v-18.97c0-5.11-1.33-7.84-6.09-7.84s-7.84,3.78-7.84,9.1v17.71h-9.38v-35Z"/>
    <path class="cls-2" d="M641.6,538.2c0-10.08,7.84-18.2,18.13-18.2,9.52,0,17.01,8.12,17.01,18.06,0,1.68-.21,3.36-.21,3.36h-25.41c1.12,4.83,5.11,7.14,9.73,7.14,3.36,0,6.86-.98,9.45-2.73l3.5,6.72c-3.92,2.59-8.47,3.85-13.02,3.85-10.22,0-19.18-6.65-19.18-18.2ZM667.92,535.19c-.7-4.41-4.2-7.35-8.47-7.35s-7.56,2.94-8.47,7.35h16.94Z"/>
    <path class="cls-2" d="M680.73,520.7h9.24v6.72c.98-2.87,4.55-7.42,12.25-7.42v10.22c-8.12,0-12.11,3.71-12.11,12.04v13.44h-9.38v-35Z"/>
  </g>
  <g>
    <path class="cls-2" d="M801.71,521.29h9.17l5.32,18.69c.7,2.45,1.12,5.53,1.12,5.53,0,0,.28-3.08.84-5.46l4.27-18.76h9.24l4.27,18.76c.56,2.38.91,5.46.91,5.46,0,0,.35-3.08,1.05-5.53l5.39-18.69h9.1l-11.2,35.07h-8.47l-4.69-18.9c-.56-2.38-.91-5.32-.91-5.32,0,0-.42,2.94-.98,5.32l-4.69,18.9h-8.54l-11.2-35.07Z"/>
    <path class="cls-2" d="M852.18,538.79c0-10.08,7.84-18.2,18.13-18.2,9.52,0,17.01,8.12,17.01,18.06,0,1.68-.21,3.36-.21,3.36h-25.41c1.12,4.83,5.11,7.14,9.73,7.14,3.36,0,6.86-.98,9.45-2.73l3.5,6.72c-3.92,2.59-8.47,3.85-13.02,3.85-10.22,0-19.18-6.65-19.18-18.2ZM878.5,535.78c-.7-4.41-4.2-7.35-8.47-7.35s-7.56,2.94-8.47,7.35h16.94Z"/>
    <path class="cls-2" d="M900.2,552.1v4.2h-8.89v-46.06h9.38v14.98c2.52-3.01,6.51-4.62,10.57-4.62,9.66,0,15.96,8.12,15.96,18.2s-6.16,18.2-15.82,18.2c-4.2,0-8.61-1.54-11.2-4.9ZM917.7,538.79c0-5.46-3.64-9.52-8.68-9.52s-8.33,4.06-8.33,9.52,3.57,9.52,8.33,9.52c5.04,0,8.68-3.99,8.68-9.52Z"/>
  </g>
  <g>
    <path class="cls-2" d="M535.17,447.15v-55.13c0-9.86-5.24-15.09-15.4-15.09-5.24,0-9.24,1.85-12.78,4.77v65.45h-25.41v-57.29c0-8.16-5.39-12.94-16.02-12.94-4.62,0-8.78.62-12.32,1.85v68.38h-25.26v-78.85c10.93-4,23.25-6.01,36.5-6.01s24.02,3.08,31.42,8.78c8.47-5.7,17.87-8.78,29.88-8.78,22.02,0,34.81,10.63,34.81,29.72v55.13h-25.41Z"/>
    <path class="cls-2" d="M621.56,449c-28.03,0-43.89-18.17-43.89-43.43s15.86-43.28,43.89-43.28,43.89,18.02,43.89,43.28-15.86,43.43-43.89,43.43ZM621.56,376.61c-12.47,0-17.4,12.17-17.4,28.49s4.93,28.49,17.4,28.49,17.4-12.17,17.4-28.49-4.93-28.49-17.4-28.49Z"/>
    <path class="cls-2" d="M737.83,447.15v-54.52c0-10.47-5.24-16.02-16.02-16.02-4.62,0-9.09.92-13.09,2.62v67.92h-26.03v-120.9h26.03v40.04c6.01-2.46,13.09-3.85,20.79-3.85,22.33,0,34.34,10.63,34.34,30.18v54.52h-26.03Z"/>
    <path class="cls-2" d="M823.14,449c-26.33,0-42.81-8.01-42.81-26.03,0-22.02,25.87-27.72,55.75-30.19v-3.85c0-8.93-6.47-12.17-17.87-12.17-8.78,0-18.48,1.85-26.33,4.77l-5.54-13.4c10.78-3.85,22.64-5.85,35.42-5.85,24.18,0,38.96,8.62,38.96,30.34v50.51c-9.55,3.85-23.25,5.85-37.58,5.85ZM836.08,403.41c-18.33,1.69-30.8,4.47-30.8,18.63,0,9.55,7.24,13.71,18.79,13.71,4.47,0,8.93-.62,12.01-1.85v-30.49Z"/>
    <path class="cls-2" d="M988.23,447.15v-55.13c0-9.86-5.24-15.09-15.4-15.09-5.24,0-9.24,1.85-12.78,4.77v65.45h-25.41v-57.29c0-8.16-5.39-12.94-16.02-12.94-4.62,0-8.78.62-12.32,1.85v68.38h-25.26v-78.85c10.93-4,23.25-6.01,36.5-6.01s24.02,3.08,31.42,8.78c8.47-5.7,17.87-8.78,29.88-8.78,22.02,0,34.81,10.63,34.81,29.72v55.13h-25.41Z"/>
    <path class="cls-2" d="M1056.76,413.73c1.69,13.09,12.01,19.25,25.56,19.25,9.09,0,19.1-2,25.87-4.77l5.39,14.94c-9.7,4-21.87,5.85-34.96,5.85-29.88,0-47.9-15.86-47.9-43.89s16.94-42.81,44.51-42.81,41.58,16.02,41.58,43.43l-60.06,8.01ZM1073.85,376c-11.71,0-18.94,9.09-18.94,24.18v1.85l36.65-4.77c0-13.86-6.16-21.25-17.71-21.25Z"/>
    <path class="cls-2" d="M1178.42,449c-29.57,0-47.43-14.48-47.43-43.12,0-25.72,16.63-43.28,43.12-43.28,5.7,0,11.24.62,15.25,1.54v-37.89h25.87v116.89c-10.01,4-23.56,5.85-36.81,5.85ZM1189.35,376.77c-2.62-.62-6.01-.92-9.24-.92-15.25,0-22.64,10.47-22.64,29.42s6.47,28.95,21.56,28.95c3.7,0,7.39-.46,10.32-1.54v-55.9Z"/>
  </g>
</svg>